<svg width="45" height="45" viewBox="0 0 45 45" fill="none" xmlns="http://www.w3.org/2000/svg">
<path d="M4.26725 25.2218L19.7845 42.6411C21.1423 44.0927 22.7263 44.8185 24.5366 44.8185C26.153 44.8185 27.5431 44.3649 28.7069 43.4576L42.1875 32.8427C43.4806 31.754 44.2241 30.3931 44.4181 28.7601C44.6121 27.248 44.1272 25.7661 42.9634 24.3145L27.4461 6.89515C25.7651 4.83869 23.5668 3.53829 20.8513 2.99394L7.3707 0.0907106C6.0776 -0.272193 4.84915 -1.51768e-05 3.68536 0.907243L2.03665 2.26813C1.06682 2.93345 0.581909 4.02216 0.581909 5.53426L1.35777 18.508C1.68105 21.1089 2.65087 23.3468 4.26725 25.2218ZM6.59484 3.81047L20.2694 6.89515C21.6918 7.19757 23.1142 8.0141 24.5366 9.34474L40.0539 26.7641C40.5711 27.248 40.7328 27.7923 40.5388 28.3972C40.5388 28.7601 40.2479 29.2742 39.666 29.9395L26.1854 40.5544C25.7328 40.9173 25.1832 41.0837 24.5366 41.0534C23.8901 41.0232 23.4052 40.7964 23.0819 40.373L7.56467 22.9536C6.33622 21.502 5.722 20.0201 5.722 18.508L4.75217 5.17136L6.59484 3.81047ZM12.1229 10.1613C12.1229 10.7056 11.9289 11.1593 11.541 11.5222C11.153 11.8851 10.6681 12.0665 10.0862 12.0665C9.50432 12.0665 9.01941 11.8851 8.63148 11.5222C8.24355 11.1593 8.04958 10.7056 8.04958 10.1613C8.04958 9.61692 8.24355 9.16329 8.63148 8.80039C9.01941 8.43748 9.50432 8.25603 10.0862 8.25603C10.6681 8.25603 11.153 8.43748 11.541 8.80039C11.9289 9.16329 12.1229 9.61692 12.1229 10.1613ZM13.1897 23.6794L32.1983 29.3044H32.8772C33.7823 29.3044 34.4612 28.8508 34.9138 27.9435C35.1078 27.4597 35.0754 26.9758 34.8168 26.4919C34.5582 26.0081 34.1703 25.6754 33.653 25.4939L14.6444 19.8689C14.1272 19.627 13.5938 19.627 13.0442 19.8689C12.4946 20.1109 12.1229 20.4738 11.9289 20.9576C11.541 22.3488 11.9612 23.256 13.1897 23.6794ZM28.7069 32.3891C28.7069 33.1754 28.416 33.8558 27.8341 34.4304C27.2522 35.005 26.5086 35.2923 25.6035 35.2923C24.6983 35.2923 23.9548 35.005 23.3729 34.4304C22.791 33.8558 22.5 33.1754 22.5 32.3891C22.5 31.6028 22.8071 30.9224 23.4213 30.3478C24.0356 29.7732 24.7629 29.4859 25.6035 29.4859C26.444 29.4859 27.1713 29.7732 27.7856 30.3478C28.3998 30.9224 28.7069 31.6028 28.7069 32.3891ZM22.5 16.9657C22.5 17.752 22.1929 18.4324 21.5787 19.007C20.9645 19.5816 20.2371 19.8689 19.3966 19.8689C18.556 19.8689 17.8287 19.5816 17.2145 19.007C16.6002 18.4324 16.2931 17.752 16.2931 16.9657C16.2931 16.1794 16.5841 15.499 17.166 14.9244C17.7479 14.3498 18.4914 14.0625 19.3966 14.0625C20.3017 14.0625 21.0453 14.3498 21.6272 14.9244C22.2091 15.499 22.5 16.1794 22.5 16.9657Z" fill="white"/>
</svg>
