<svg width="252" height="65" viewBox="0 0 252 65" fill="none" xmlns="http://www.w3.org/2000/svg">
<g filter="url(#filter0_d_101_9)">
<path d="M29.2031 39.0234C29.2031 38.4141 29.1484 37.8594 29.0391 37.3594C28.9297 36.8594 28.6953 36.3984 28.3359 35.9766C27.9922 35.5547 27.4844 35.1328 26.8125 34.7109C26.1562 34.2891 25.2969 33.8516 24.2344 33.3984C22.9688 32.8672 21.7422 32.3047 20.5547 31.7109C19.3672 31.1016 18.2969 30.3984 17.3438 29.6016C16.3906 28.8047 15.6328 27.8672 15.0703 26.7891C14.5234 25.6953 14.25 24.4141 14.25 22.9453C14.25 21.5078 14.5078 20.2031 15.0234 19.0312C15.5547 17.8594 16.3047 16.8594 17.2734 16.0312C18.2422 15.1875 19.375 14.5391 20.6719 14.0859C21.9844 13.6328 23.4453 13.4062 25.0547 13.4062C27.2422 13.4062 29.1328 13.8594 30.7266 14.7656C32.3359 15.6719 33.5781 16.9141 34.4531 18.4922C35.3438 20.0703 35.7891 21.8828 35.7891 23.9297H28.9453C28.9453 22.9609 28.8047 22.1094 28.5234 21.375C28.2578 20.625 27.8281 20.0391 27.2344 19.6172C26.6406 19.1953 25.875 18.9844 24.9375 18.9844C24.0625 18.9844 23.3359 19.1641 22.7578 19.5234C22.1953 19.8672 21.7734 20.3438 21.4922 20.9531C21.2266 21.5469 21.0938 22.2188 21.0938 22.9688C21.0938 23.5312 21.2266 24.0391 21.4922 24.4922C21.7734 24.9297 22.1562 25.3281 22.6406 25.6875C23.125 26.0312 23.6953 26.3672 24.3516 26.6953C25.0234 27.0234 25.7578 27.3438 26.5547 27.6562C28.1016 28.2656 29.4688 28.9375 30.6562 29.6719C31.8438 30.3906 32.8359 31.2031 33.6328 32.1094C34.4297 33 35.0312 34.0078 35.4375 35.1328C35.8438 36.2578 36.0469 37.5391 36.0469 38.9766C36.0469 40.3984 35.7969 41.6953 35.2969 42.8672C34.8125 44.0234 34.1016 45.0234 33.1641 45.8672C32.2266 46.6953 31.0938 47.3359 29.7656 47.7891C28.4531 48.2422 26.9844 48.4688 25.3594 48.4688C23.7812 48.4688 22.2891 48.25 20.8828 47.8125C19.4766 47.3594 18.2344 46.6797 17.1562 45.7734C16.0938 44.8516 15.2578 43.6875 14.6484 42.2812C14.0391 40.8594 13.7344 39.1797 13.7344 37.2422H20.6016C20.6016 38.2734 20.7031 39.1562 20.9062 39.8906C21.1094 40.6094 21.4219 41.1875 21.8438 41.625C22.2656 42.0469 22.7812 42.3672 23.3906 42.5859C24.0156 42.7891 24.7266 42.8906 25.5234 42.8906C26.4297 42.8906 27.1484 42.7188 27.6797 42.375C28.2266 42.0312 28.6172 41.5703 28.8516 40.9922C29.0859 40.4141 29.2031 39.7578 29.2031 39.0234ZM53.0391 19.9688L45.7031 48H38.4609L49.125 13.875H53.6484L53.0391 19.9688ZM58.8281 48L51.4453 19.9688L50.7656 13.875H55.3594L66.1172 48H58.8281ZM59.0859 35.2734V40.9688H43.6875V35.2734H59.0859ZM84.2812 13.875H91.125V37.3125C91.125 39.9375 90.6406 42.0781 89.6719 43.7344C88.7188 45.375 87.3984 46.5781 85.7109 47.3438C84.0234 48.0938 82.0938 48.4688 79.9219 48.4688C77.7344 48.4688 75.7891 48.0938 74.0859 47.3438C72.3828 46.5781 71.0547 45.375 70.1016 43.7344C69.1641 42.0781 68.6953 39.9375 68.6953 37.3125V13.875H75.5391V37.3125C75.5391 38.7969 75.7031 39.9375 76.0312 40.7344C76.375 41.5312 76.8672 42.0781 77.5078 42.375C78.1641 42.6562 78.9688 42.7969 79.9219 42.7969C80.8906 42.7969 81.6875 42.6562 82.3125 42.375C82.9531 42.0781 83.4375 41.5312 83.7656 40.7344C84.1094 39.9375 84.2812 38.7969 84.2812 37.3125V13.875ZM105.281 48H99.2578L99.3047 42.3281H105.281C106.938 42.3281 108.227 42.0312 109.148 41.4375C110.07 40.8438 110.719 39.9062 111.094 38.625C111.484 37.3438 111.68 35.6641 111.68 33.5859V28.2656C111.68 26.6875 111.578 25.3516 111.375 24.2578C111.172 23.1484 110.828 22.2578 110.344 21.5859C109.859 20.8984 109.211 20.3906 108.398 20.0625C107.586 19.7344 106.578 19.5703 105.375 19.5703H99.1406V13.875H105.375C107.344 13.875 109.133 14.1953 110.742 14.8359C112.352 15.4766 113.734 16.4141 114.891 17.6484C116.047 18.8672 116.938 20.375 117.562 22.1719C118.188 23.9688 118.5 26.0156 118.5 28.3125V33.5859C118.5 35.8984 118.188 37.9453 117.562 39.7266C116.938 41.5078 116.047 43.0156 114.891 44.25C113.75 45.4688 112.367 46.3984 110.742 47.0391C109.117 47.6797 107.297 48 105.281 48ZM103.242 13.875V48H96.375V13.875H103.242ZM135.352 19.9688L128.016 48H120.773L131.438 13.875H135.961L135.352 19.9688ZM141.141 48L133.758 19.9688L133.078 13.875H137.672L148.43 48H141.141ZM141.398 35.2734V40.9688H126V35.2734H141.398Z" fill="white"/>
<path d="M181.688 42.3281V48H167.508V42.3281H181.688ZM169.617 13.875V48H162.75V13.875H169.617ZM192.844 13.875V48H186.023V13.875H192.844ZM222.562 13.875V48H215.93L205.219 26.6484V48H198.703V13.875H205.242L216.047 35.4609V13.875H222.562ZM247.664 42.3281V48H232.828V42.3281H247.664ZM234.961 13.875V48H228.094V13.875H234.961ZM245.672 27.7031V33.2109H232.828V27.7031H245.672ZM247.617 13.875V19.5703H232.828V13.875H247.617Z" fill="#FCA522"/>
</g>
<rect x="1" y="1" width="152" height="63" rx="29" stroke="#FCA522" stroke-width="2"/>
<defs>
<filter id="filter0_d_101_9" x="9.73438" y="13.4062" width="241.93" height="43.0625" filterUnits="userSpaceOnUse" color-interpolation-filters="sRGB">
<feFlood flood-opacity="0" result="BackgroundImageFix"/>
<feColorMatrix in="SourceAlpha" type="matrix" values="0 0 0 0 0 0 0 0 0 0 0 0 0 0 0 0 0 0 127 0" result="hardAlpha"/>
<feOffset dy="4"/>
<feGaussianBlur stdDeviation="2"/>
<feComposite in2="hardAlpha" operator="out"/>
<feColorMatrix type="matrix" values="0 0 0 0 0 0 0 0 0 0 0 0 0 0 0 0 0 0 0.25 0"/>
<feBlend mode="normal" in2="BackgroundImageFix" result="effect1_dropShadow_101_9"/>
<feBlend mode="normal" in="SourceGraphic" in2="effect1_dropShadow_101_9" result="shape"/>
</filter>
</defs>
</svg>
